<svg xmlns="http://www.w3.org/2000/svg" viewBox="0 0 512 512" width="512" height="512" role="img" aria-label="Opaque">
<defs><clipPath id="d"><circle cx="256" cy="256" r="176"/></clipPath>
</defs>
<rect width="512" height="512" rx="112" fill="#07090a"/>
<path d="M0 76 H232.0 L131.2 436 H0 Z" fill="#ececec" clip-path="url(#d)"/>
<g clip-path="url(#d)"><circle cx="192.0" cy="83.1" r="14.88" fill="#ececec"/><circle cx="216.0" cy="83.1" r="14.88" fill="#ececec"/><circle cx="240.0" cy="83.1" r="14.78" fill="#ececec"/><circle cx="264.0" cy="83.1" r="14.25" fill="#ececec"/><circle cx="288.0" cy="83.1" r="13.32" fill="#ececec"/><circle cx="312.0" cy="83.1" r="12.08" fill="#ececec"/><circle cx="204.0" cy="103.9" r="14.88" fill="#ececec"/><circle cx="228.0" cy="103.9" r="14.85" fill="#ececec"/><circle cx="252.0" cy="103.9" r="14.43" fill="#ececec"/><circle cx="276.0" cy="103.9" r="13.59" fill="#ececec"/><circle cx="300.0" cy="103.9" r="12.42" fill="#ececec"/><circle cx="324.0" cy="103.9" r="11.01" fill="#ececec"/><circle cx="348.0" cy="103.9" r="9.43" fill="#ececec"/><circle cx="192.0" cy="124.7" r="14.88" fill="#ececec"/><circle cx="216.0" cy="124.7" r="14.88" fill="#ececec"/><circle cx="240.0" cy="124.7" r="14.58" fill="#ececec"/><circle cx="264.0" cy="124.7" r="13.84" fill="#ececec"/><circle cx="288.0" cy="124.7" r="12.75" fill="#ececec"/><circle cx="312.0" cy="124.7" r="11.39" fill="#ececec"/><circle cx="336.0" cy="124.7" r="9.85" fill="#ececec"/><circle cx="360.0" cy="124.7" r="8.21" fill="#ececec"/><circle cx="384.0" cy="124.7" r="6.56" fill="#ececec"/><circle cx="180.0" cy="145.5" r="14.88" fill="#ececec"/><circle cx="204.0" cy="145.5" r="14.88" fill="#ececec"/><circle cx="228.0" cy="145.5" r="14.70" fill="#ececec"/><circle cx="252.0" cy="145.5" r="14.07" fill="#ececec"/><circle cx="276.0" cy="145.5" r="13.06" fill="#ececec"/><circle cx="300.0" cy="145.5" r="11.76" fill="#ececec"/><circle cx="324.0" cy="145.5" r="10.26" fill="#ececec"/><circle cx="348.0" cy="145.5" r="8.64" fill="#ececec"/><circle cx="372.0" cy="145.5" r="6.98" fill="#ececec"/><circle cx="168.0" cy="166.3" r="14.88" fill="#ececec"/><circle cx="192.0" cy="166.3" r="14.88" fill="#ececec"/><circle cx="216.0" cy="166.3" r="14.79" fill="#ececec"/><circle cx="240.0" cy="166.3" r="14.27" fill="#ececec"/><circle cx="264.0" cy="166.3" r="13.35" fill="#ececec"/><circle cx="288.0" cy="166.3" r="12.12" fill="#ececec"/><circle cx="312.0" cy="166.3" r="10.66" fill="#ececec"/><circle cx="336.0" cy="166.3" r="9.06" fill="#ececec"/><circle cx="384.0" cy="166.3" r="5.77" fill="#ececec"/><circle cx="408.0" cy="166.3" r="4.24" fill="#ececec"/><circle cx="180.0" cy="187.1" r="14.88" fill="#ececec"/><circle cx="204.0" cy="187.1" r="14.85" fill="#ececec"/><circle cx="228.0" cy="187.1" r="14.45" fill="#ececec"/><circle cx="252.0" cy="187.1" r="13.62" fill="#ececec"/><circle cx="276.0" cy="187.1" r="12.46" fill="#ececec"/><circle cx="300.0" cy="187.1" r="11.05" fill="#ececec"/><circle cx="324.0" cy="187.1" r="9.48" fill="#ececec"/><circle cx="372.0" cy="187.1" r="6.19" fill="#ececec"/><circle cx="396.0" cy="187.1" r="4.62" fill="#ececec"/><circle cx="420.0" cy="187.1" r="3.21" fill="#ececec"/><circle cx="168.0" cy="207.8" r="14.88" fill="#ececec"/><circle cx="192.0" cy="207.8" r="14.88" fill="#ececec"/><circle cx="216.0" cy="207.8" r="14.59" fill="#ececec"/><circle cx="240.0" cy="207.8" r="13.87" fill="#ececec"/><circle cx="264.0" cy="207.8" r="12.79" fill="#ececec"/><circle cx="288.0" cy="207.8" r="11.44" fill="#ececec"/><circle cx="312.0" cy="207.8" r="9.90" fill="#ececec"/><circle cx="336.0" cy="207.8" r="8.26" fill="#ececec"/><circle cx="360.0" cy="207.8" r="6.61" fill="#ececec"/><circle cx="384.0" cy="207.8" r="5.01" fill="#ececec"/><circle cx="408.0" cy="207.8" r="3.55" fill="#ececec"/><circle cx="432.0" cy="207.8" r="2.29" fill="#ececec"/><circle cx="156.0" cy="228.6" r="14.88" fill="#ececec"/><circle cx="180.0" cy="228.6" r="14.88" fill="#ececec"/><circle cx="204.0" cy="228.6" r="14.71" fill="#ececec"/><circle cx="228.0" cy="228.6" r="14.09" fill="#ececec"/><circle cx="252.0" cy="228.6" r="13.10" fill="#ececec"/><circle cx="276.0" cy="228.6" r="11.80" fill="#ececec"/><circle cx="300.0" cy="228.6" r="10.31" fill="#ececec"/><circle cx="324.0" cy="228.6" r="8.69" fill="#ececec"/><circle cx="348.0" cy="228.6" r="7.03" fill="#ececec"/><circle cx="372.0" cy="228.6" r="5.41" fill="#ececec"/><circle cx="396.0" cy="228.6" r="3.91" fill="#ececec"/><circle cx="420.0" cy="228.6" r="2.60" fill="#ececec"/><circle cx="168.0" cy="249.4" r="14.88" fill="#ececec"/><circle cx="192.0" cy="249.4" r="14.80" fill="#ececec"/><circle cx="216.0" cy="249.4" r="14.29" fill="#ececec"/><circle cx="240.0" cy="249.4" r="13.38" fill="#ececec"/><circle cx="264.0" cy="249.4" r="12.16" fill="#ececec"/><circle cx="288.0" cy="249.4" r="10.71" fill="#ececec"/><circle cx="312.0" cy="249.4" r="9.11" fill="#ececec"/><circle cx="336.0" cy="249.4" r="7.45" fill="#ececec"/><circle cx="360.0" cy="249.4" r="5.82" fill="#ececec"/><circle cx="384.0" cy="249.4" r="4.28" fill="#ececec"/><circle cx="432.0" cy="249.4" r="1.77" fill="#ececec"/><circle cx="156.0" cy="270.2" r="14.88" fill="#ececec"/><circle cx="180.0" cy="270.2" r="14.86" fill="#ececec"/><circle cx="204.0" cy="270.2" r="14.47" fill="#ececec"/><circle cx="228.0" cy="270.2" r="13.65" fill="#ececec"/><circle cx="252.0" cy="270.2" r="12.50" fill="#ececec"/><circle cx="276.0" cy="270.2" r="11.10" fill="#ececec"/><circle cx="300.0" cy="270.2" r="9.53" fill="#ececec"/><circle cx="324.0" cy="270.2" r="7.88" fill="#ececec"/><circle cx="348.0" cy="270.2" r="6.23" fill="#ececec"/><circle cx="372.0" cy="270.2" r="4.67" fill="#ececec"/><circle cx="420.0" cy="270.2" r="2.04" fill="#ececec"/><circle cx="144.0" cy="291.0" r="14.88" fill="#ececec"/><circle cx="168.0" cy="291.0" r="14.88" fill="#ececec"/><circle cx="192.0" cy="291.0" r="14.61" fill="#ececec"/><circle cx="216.0" cy="291.0" r="13.90" fill="#ececec"/><circle cx="240.0" cy="291.0" r="12.83" fill="#ececec"/><circle cx="264.0" cy="291.0" r="11.48" fill="#ececec"/><circle cx="288.0" cy="291.0" r="9.94" fill="#ececec"/><circle cx="312.0" cy="291.0" r="8.31" fill="#ececec"/><circle cx="336.0" cy="291.0" r="6.65" fill="#ececec"/><circle cx="384.0" cy="291.0" r="3.60" fill="#ececec"/><circle cx="408.0" cy="291.0" r="2.33" fill="#ececec"/><circle cx="432.0" cy="291.0" r="1.31" fill="#ececec"/><circle cx="132.0" cy="311.8" r="14.88" fill="#ececec"/><circle cx="156.0" cy="311.8" r="14.88" fill="#ececec"/><circle cx="180.0" cy="311.8" r="14.73" fill="#ececec"/><circle cx="204.0" cy="311.8" r="14.12" fill="#ececec"/><circle cx="228.0" cy="311.8" r="13.13" fill="#ececec"/><circle cx="252.0" cy="311.8" r="11.85" fill="#ececec"/><circle cx="276.0" cy="311.8" r="10.35" fill="#ececec"/><circle cx="300.0" cy="311.8" r="8.74" fill="#ececec"/><circle cx="324.0" cy="311.8" r="7.08" fill="#ececec"/><circle cx="372.0" cy="311.8" r="3.96" fill="#ececec"/><circle cx="396.0" cy="311.8" r="2.63" fill="#ececec"/><circle cx="420.0" cy="311.8" r="1.55" fill="#ececec"/><circle cx="144.0" cy="332.6" r="14.88" fill="#ececec"/><circle cx="168.0" cy="332.6" r="14.81" fill="#ececec"/><circle cx="192.0" cy="332.6" r="14.31" fill="#ececec"/><circle cx="216.0" cy="332.6" r="13.42" fill="#ececec"/><circle cx="240.0" cy="332.6" r="12.20" fill="#ececec"/><circle cx="264.0" cy="332.6" r="10.75" fill="#ececec"/><circle cx="288.0" cy="332.6" r="9.16" fill="#ececec"/><circle cx="336.0" cy="332.6" r="5.87" fill="#ececec"/><circle cx="360.0" cy="332.6" r="4.33" fill="#ececec"/><circle cx="384.0" cy="332.6" r="2.95" fill="#ececec"/><circle cx="408.0" cy="332.6" r="1.80" fill="#ececec"/><circle cx="132.0" cy="353.3" r="14.88" fill="#ececec"/><circle cx="156.0" cy="353.3" r="14.86" fill="#ececec"/><circle cx="180.0" cy="353.3" r="14.48" fill="#ececec"/><circle cx="204.0" cy="353.3" r="13.68" fill="#ececec"/><circle cx="228.0" cy="353.3" r="12.54" fill="#ececec"/><circle cx="252.0" cy="353.3" r="11.14" fill="#ececec"/><circle cx="276.0" cy="353.3" r="9.58" fill="#ececec"/><circle cx="324.0" cy="353.3" r="6.28" fill="#ececec"/><circle cx="348.0" cy="353.3" r="4.71" fill="#ececec"/><circle cx="372.0" cy="353.3" r="3.29" fill="#ececec"/><circle cx="396.0" cy="353.3" r="2.07" fill="#ececec"/><circle cx="120.0" cy="374.1" r="14.88" fill="#ececec"/><circle cx="144.0" cy="374.1" r="14.88" fill="#ececec"/><circle cx="168.0" cy="374.1" r="14.63" fill="#ececec"/><circle cx="192.0" cy="374.1" r="13.92" fill="#ececec"/><circle cx="216.0" cy="374.1" r="12.86" fill="#ececec"/><circle cx="240.0" cy="374.1" r="11.52" fill="#ececec"/><circle cx="264.0" cy="374.1" r="9.99" fill="#ececec"/><circle cx="288.0" cy="374.1" r="8.36" fill="#ececec"/><circle cx="312.0" cy="374.1" r="6.70" fill="#ececec"/><circle cx="336.0" cy="374.1" r="5.11" fill="#ececec"/><circle cx="360.0" cy="374.1" r="3.64" fill="#ececec"/><circle cx="384.0" cy="374.1" r="2.36" fill="#ececec"/><circle cx="156.0" cy="394.9" r="14.74" fill="#ececec"/><circle cx="180.0" cy="394.9" r="14.14" fill="#ececec"/><circle cx="204.0" cy="394.9" r="13.17" fill="#ececec"/><circle cx="228.0" cy="394.9" r="11.89" fill="#ececec"/><circle cx="252.0" cy="394.9" r="10.40" fill="#ececec"/><circle cx="276.0" cy="394.9" r="8.78" fill="#ececec"/><circle cx="300.0" cy="394.9" r="7.13" fill="#ececec"/><circle cx="324.0" cy="394.9" r="5.51" fill="#ececec"/><circle cx="348.0" cy="394.9" r="4.00" fill="#ececec"/><circle cx="372.0" cy="394.9" r="2.67" fill="#ececec"/><circle cx="168.0" cy="415.7" r="14.34" fill="#ececec"/><circle cx="192.0" cy="415.7" r="13.45" fill="#ececec"/><circle cx="216.0" cy="415.7" r="12.24" fill="#ececec"/><circle cx="240.0" cy="415.7" r="10.80" fill="#ececec"/><circle cx="264.0" cy="415.7" r="9.21" fill="#ececec"/><circle cx="288.0" cy="415.7" r="7.55" fill="#ececec"/><circle cx="312.0" cy="415.7" r="5.92" fill="#ececec"/><circle cx="336.0" cy="415.7" r="4.37" fill="#ececec"/><circle cx="228.0" cy="436.5" r="11.19" fill="#ececec"/><circle cx="252.0" cy="436.5" r="9.63" fill="#ececec"/><circle cx="276.0" cy="436.5" r="7.98" fill="#ececec"/><circle cx="396.0" cy="145.5" r="5.37" fill="#ececec"/><circle cx="360.0" cy="166.3" r="7.40" fill="#ececec"/><circle cx="348.0" cy="187.1" r="7.83" fill="#ececec"/><circle cx="408.0" cy="249.4" r="2.92" fill="#ececec"/><circle cx="396.0" cy="270.2" r="3.25" fill="#ececec"/><circle cx="360.0" cy="291.0" r="5.06" fill="#ececec"/><circle cx="348.0" cy="311.8" r="5.46" fill="#ececec"/><circle cx="312.0" cy="332.6" r="7.50" fill="#ececec"/><circle cx="300.0" cy="353.3" r="7.93" fill="#ececec"/></g>
</svg>